<svg viewBox="0 0 360 360" xmlns="http://www.w3.org/2000/svg">
  <path d="M180,327.31475273147225C209.74194088239625,333.19970064675795,240.84052694348998,345.2853164182319,269.1270730830729,334.37261890978675C298.1901026070444,323.1603610289881,318.01734077364557,295.6442336154611,332.9523689379877,268.3070913795382C347.6919511624905,241.3276942645506,357.21068189999846,210.5141513559204,353.4650551341474,180C349.8794611045759,150.78957254451134,335.46274049660605,122.04429756703388,312.7076375827786,103.38120971806349C291.8618654894611,86.284100672655,260.3185649211569,94.53676032445232,235.74400749057537,83.44854680882351C214.54606892460714,73.88388752351992,203.20961021384136,44.968637562292024,180,43.502588309347615C156.8948501308352,42.04313735809221,141.74425349695724,68.09355527506179,120.03628415986898,76.13979755427033C92.51925259919274,86.33921783645907,57.07058038084996,76.42738829454323,36.01671287661108,96.87121042050416C15.036698435507304,117.24331940939479,6.207600824810834,151.5747159674105,13.076884504407648,179.99999999999997C19.89553686021174,208.21577022781986,53.38148890565894,219.91539373388855,71.27530531386077,242.77223174460227C86.09779822784425,261.7058852325514,90.16641913042979,287.9579140890581,109.14863235317165,302.71816855004835C129.2261987154647,318.33015146202086,155.0506099119455,322.378092351206,180,327.31475273147225" fill="#FFDC5D" />
</svg>